PathFileType	4	(X/Y/Z)	C:/Users/opensim2020/Desktop/walking_exp_matlab/subject01_walking12_straight_03.trc	
DataRate	CameraRate	NumFrames	NumMarkers	Units	OrigDataRate	OrigDataStartFrame	OrigNumFrames	
100.00	100.00	6	44	mm	100.00	1841	172	
Frame#	Time	LFHD			RFHD			LBHD			RBHD			C7			T10			CLAV			STRN			RBAK			LSHO			LUPA			LELB			LFRM			LWRA			LWRB			LFIN			RSHO			RUPA			RELB			RFRM			RWRA			RWRB			RFIN			LASI			RASI			LPSI			RPSI			LTHI			LKNE			LTIB			LANK			LHEE			LTOE			RTHI			RKNE			RTIB			RANK			RHEE			RTOE			*39			*40			*41			*42			*43			
		X1	Y1	Z1	X2	Y2	Z2	X3	Y3	Z3	X4	Y4	Z4	X5	Y5	Z5	X6	Y6	Z6	X7	Y7	Z7	X8	Y8	Z8	X9	Y9	Z9	X10	Y10	Z10	X11	Y11	Z11	X12	Y12	Z12	X13	Y13	Z13	X14	Y14	Z14	X15	Y15	Z15	X16	Y16	Z16	X17	Y17	Z17	X18	Y18	Z18	X19	Y19	Z19	X20	Y20	Z20	X21	Y21	Z21	X22	Y22	Z22	X23	Y23	Z23	X24	Y24	Z24	X25	Y25	Z25	X26	Y26	Z26	X27	Y27	Z27	X28	Y28	Z28	X29	Y29	Z29	X30	Y30	Z30	X31	Y31	Z31	X32	Y32	Z32	X33	Y33	Z33	X34	Y34	Z34	X35	Y35	Z35	X36	Y36	Z36	X37	Y37	Z37	X38	Y38	Z38	X39	Y39	Z39	X40	Y40	Z40	X41	Y41	Z41	X42	Y42	Z42	X43	Y43	Z43	X44	Y44	Z44	

65	0.640	-1114.04968	-104.62996	1660.29150	-1001.28339	-92.16090	1663.03223	-1108.30786	-223.33994	1623.21692	-988.15173	-213.34299	1624.96997	-1076.54260	-272.26804	1425.95667	-1060.01086	-311.24683	1132.75928	-1060.53247	-131.52188	1355.65259	-1061.24365	-88.46575	1201.27820	-1003.67206	-334.77368	1229.73694	-1226.17371	-177.55952	1385.82837	-1319.74976	-181.79111	1206.97961	-1335.14661	-159.86975	1055.22632	-1356.96362	-64.83406	986.54993	-1338.71997	66.43281	944.77539	-1359.51428	26.32065	905.62097	-1374.52905	104.31654	881.27380	-914.68176	-208.64253	1383.64954	-824.65881	-302.78845	1193.45874	-818.76123	-317.57498	1070.43579	-785.05322	-316.97092	951.36157	-798.87518	-263.55139	819.58862	-762.96686	-309.07590	830.81940	-760.89246	-288.54718	747.39459	-1162.74500	-146.47406	923.12335	-946.28290	-135.80182	931.36707	-1097.25317	-329.91406	939.79181	-952.38000	-319.32471	938.22308	-1206.96497	-236.83102	596.03351	-1188.41492	-274.68182	464.36633	-1190.49133	-355.09088	292.73856	-1134.68152	-416.44461	82.87820	-1082.09204	-465.54480	61.44995	-1141.64587	-274.93240	32.28119	-882.46167	-96.78375	608.60657	-913.02747	-35.27977	464.61487	-903.69592	-49.18566	290.40787	-949.77887	-16.46399	83.64939	-1004.01929	-51.26743	34.78598	-943.03833	125.57011	74.84384	-1023.60022	-101.19477	1697.59448	-3101.95313	1973.04407	1023.51019	-3140.76270	2012.39929	1021.91620						 
66	0.650	-1112.79749	-94.66535	1659.56653	-999.95563	-82.47881	1662.21936	-1107.33972	-213.33876	1622.21118	-987.07678	-203.53206	1623.85608	-1075.55981	-262.12506	1425.10193	-1058.92371	-300.66595	1131.65527	-1059.48755	-121.12632	1354.78967	-1060.57556	-77.87944	1200.44910	-1002.71686	-324.24564	1228.52002	-1225.09998	-166.97362	1385.11694	-1319.13306	-169.94987	1206.70581	-1335.42236	-147.90083	1055.14648	-1357.22522	-51.57495	988.24976	-1338.64514	80.58652	949.12500	-1359.80652	41.25174	909.26465	-1374.61926	119.76806	886.64465	-913.67963	-198.22357	1382.65991	-824.59613	-293.95627	1192.76392	-818.89551	-309.44684	1069.99854	-785.05328	-310.31915	950.97986	-798.39252	-258.20987	818.51764	-762.85663	-303.62057	830.29541	-760.65814	-284.39847	746.62177	-1163.06531	-136.54866	922.51453	-946.63660	-124.30235	930.11786	-1095.83936	-319.53021	938.99316	-951.23218	-307.75870	937.11945	-1207.09778	-230.08057	596.22552	-1188.53320	-269.26471	464.77762	-1190.56372	-351.87167	294.05844	-1134.77588	-415.56693	84.76658	-1082.15857	-464.89493	64.04591	-1141.47131	-274.45581	32.04984	-881.58099	-89.94171	605.96875	-913.83185	-25.16506	463.61087	-903.45404	-31.22439	289.60013	-948.99152	10.53607	84.04150	-1003.14087	-22.51632	33.44885	-943.82404	153.17961	81.25085	-1022.04590	-91.43678	1696.94617	-3102.09912	1973.10498	1023.42810	-3140.69727	2012.46436	1021.92535						 
67	0.660	-1111.43506	-84.69687	1658.80591	-998.62085	-72.76814	1661.35962	-1106.29028	-203.25380	1621.23962	-986.02057	-193.71687	1622.82141	-1074.28735	-251.57927	1424.00012	-1057.54102	-290.17572	1130.63171	-1058.31995	-110.68257	1353.90918	-1059.80151	-67.36490	1199.61816	-1001.60547	-313.70514	1227.36975	-1223.92688	-156.43082	1384.42065	-1318.39453	-158.89366	1206.40381	-1335.58740	-136.10973	1055.10901	-1357.32654	-38.61514	989.84991	-1338.50696	94.13024	953.12677	-1359.94531	55.66454	912.70856	-1374.61060	134.68875	891.62994	-912.39838	-187.91025	1381.73840	-824.32318	-284.80634	1192.03723	-818.83008	-301.04861	1069.48633	-785.05701	-303.43726	950.46283	-797.86584	-252.52797	817.53937	-762.70984	-298.01572	829.76215	-760.43378	-279.72824	745.87915	-1163.32495	-126.44567	921.96362	-946.94250	-112.73562	928.77362	-1094.51233	-308.98550	938.09143	-949.92676	-296.59369	936.11475	-1207.02258	-222.78268	596.30676	-1188.63599	-263.26398	465.16129	-1190.69348	-348.31186	295.48404	-1134.99365	-414.62509	86.75640	-1082.37793	-464.14304	66.95781	-1141.65442	-274.70578	32.09500	-880.11249	-82.38921	603.57227	-914.37146	-15.05237	462.73206	-903.19012	-14.06331	289.26938	-948.74884	34.80937	84.81565	-1002.30945	3.67982	33.14449	-944.98871	178.20432	86.68443	-1020.86969	-81.85838	1695.98450	-3101.91699	1973.07751	1023.34888	-3140.66528	2012.56104	1021.99341						 
68	0.670	-1110.07336	-74.68734	1658.08325	-997.16034	-62.86739	1660.69421	-1105.05151	-193.15785	1620.26367	-984.78955	-183.83992	1621.91028	-1073.04639	-241.26814	1423.08655	-1056.20667	-279.46738	1129.58435	-1057.02417	-100.15073	1353.09839	-1058.93457	-56.66613	1198.83691	-1000.32849	-303.05173	1226.21790	-1222.67358	-145.97244	1383.83960	-1317.47498	-148.01222	1206.07605	-1335.49646	-124.46540	1054.98230	-1357.25891	-25.95693	991.35559	-1338.33459	107.29963	956.88184	-1359.91174	69.66343	915.80457	-1374.46265	149.07660	896.23590	-911.06781	-177.36636	1380.68115	-823.78522	-275.34338	1191.22302	-818.62604	-292.28220	1068.90100	-784.86462	-296.13068	950.00555	-797.23859	-246.38887	816.50525	-762.38416	-291.50540	829.19525	-760.17847	-274.75232	745.06567	-1163.44482	-116.17416	921.46124	-947.14746	-101.04694	927.48499	-1093.20154	-298.29129	937.21973	-948.68170	-284.88431	934.81830	-1206.97009	-214.92375	596.34033	-1188.70203	-256.62769	465.49185	-1190.92590	-344.25531	296.94070	-1135.31824	-413.52911	88.87050	-1082.70337	-463.24945	69.90216	-1141.72729	-274.59546	32.06331	-878.60162	-73.94714	601.70117	-914.54047	-4.78169	462.04904	-903.03552	1.61541	289.06430	-948.61072	56.89050	85.83273	-1002.18353	26.44620	32.59469	-946.75531	200.62263	91.01321	-1019.47394	-72.00408	1695.25659	-3101.82861	1973.15527	1023.37097	-3140.75806	2012.53613	1021.91376						 
69	0.680	-1108.45422	-64.59462	1657.38928	-995.67792	-52.98858	1659.96948	-1103.65112	-183.06491	1619.29517	-983.43573	-173.88028	1620.99255	-1071.44824	-230.85484	1422.13892	-1054.82849	-268.69556	1128.50647	-1055.73694	-89.57744	1352.33618	-1058.00916	-45.96419	1198.11768	-998.96851	-292.31183	1225.04822	-1221.33289	-135.61975	1383.19885	-1316.46875	-137.15491	1205.75806	-1335.31335	-113.00917	1054.91394	-1357.04883	-13.58270	992.73492	-1338.00085	120.08246	960.25037	-1359.71521	83.12585	918.61859	-1374.22754	162.92343	900.38446	-909.67432	-166.89165	1379.69385	-823.07422	-265.49155	1190.29883	-818.22400	-283.09137	1068.21936	-784.52582	-288.35345	949.43109	-796.53540	-239.82013	815.41040	-762.09009	-285.35809	828.51959	-759.85889	-269.27454	744.16302	-1163.46143	-105.74435	920.93591	-947.16992	-89.39723	926.20471	-1092.03320	-287.40039	936.24335	-947.57404	-273.33014	933.72089	-1206.86157	-206.38199	596.20636	-1188.79395	-249.34799	465.66425	-1191.17993	-339.62994	298.44336	-1135.85376	-412.18823	91.32040	-1083.20984	-462.38321	73.29359	-1141.81677	-274.42139	32.08764	-877.41510	-64.04642	600.23199	-914.37469	5.63200	461.44803	-902.97797	16.35886	288.79404	-948.83234	76.04065	86.52487	-1002.12592	45.64204	33.14616	-949.12250	220.19989	94.31707	-1018.03607	-62.10861	1694.51929	-3101.98730	1973.08411	1023.37024	-3140.82837	2012.49231	1022.04498						 
70	0.690	-1107.03455	-54.56779	1656.67456	-994.09967	-43.02864	1659.35742	-1102.24133	-172.90601	1618.36230	-981.93048	-163.82915	1620.12109	-1069.87061	-220.43066	1421.22559	-1053.35486	-257.81015	1127.47693	-1054.28467	-79.01331	1351.63159	-1056.96826	-35.09816	1197.44690	-997.46796	-281.56363	1223.96667	-1219.83191	-125.33090	1382.74316	-1315.19995	-126.48853	1205.43701	-1334.84729	-101.71758	1054.86902	-1356.60974	-1.55255	994.03522	-1337.59033	132.46977	963.24286	-1359.36560	96.12001	921.13928	-1373.91467	176.16592	904.10779	-908.11029	-156.33951	1378.59241	-822.03973	-255.38242	1189.38477	-817.62024	-273.50443	1067.48535	-784.06506	-280.11371	948.81781	-795.79309	-232.74992	814.32178	-761.71069	-278.42590	827.80811	-759.75812	-263.32318	743.18488	-1163.34985	-95.05551	920.44684	-947.07043	-77.74247	925.11133	-1091.00330	-276.34000	935.29462	-946.65631	-262.27240	932.79510	-1206.74036	-197.23441	596.04169	-1188.84460	-241.34183	465.73892	-1191.55334	-334.40631	300.00714	-1136.61072	-410.66592	94.01067	-1083.88513	-461.11728	76.88382	-1142.17761	-274.31915	32.16235	-876.98352	-53.08292	599.41418	-914.27570	16.07500	460.60153	-903.32611	29.67295	288.17487	-949.12366	92.31865	86.67172	-1002.04980	62.51687	33.18637	-951.81378	236.84515	96.36392	-1016.51672	-52.24407	1693.89941	-3102.04956	1973.04858	1023.80902	-3140.68481	2012.56213	1022.07501						 
